<svg width="204" height="76" viewBox="0 0 204 76" fill="none" xmlns="http://www.w3.org/2000/svg">
<g clip-path="url(#clip0_2_11)">
<path d="M66.0105 41.2201V71.6901H58.3105V41.2201H66.0105ZM82.8581 65.3651H96.4431V71.6901H74.1131V65.4751L87.4231 47.5451H74.1681V41.2201H96.2781V47.4351L82.8581 65.3651ZM118.135 72.1851C115.202 72.1851 112.562 71.5435 110.215 70.2601C107.868 68.9401 106.017 67.0885 104.66 64.7051C103.34 62.3218 102.68 59.5718 102.68 56.4551C102.68 53.3384 103.358 50.5884 104.715 48.2051C106.108 45.8218 107.997 43.9884 110.38 42.7051C112.763 41.3851 115.422 40.7251 118.355 40.7251C121.288 40.7251 123.947 41.3851 126.33 42.7051C128.713 43.9884 130.583 45.8218 131.94 48.2051C133.333 50.5884 134.03 53.3384 134.03 56.4551C134.03 59.5718 133.315 62.3218 131.885 64.7051C130.492 67.0885 128.585 68.9401 126.165 70.2601C123.782 71.5435 121.105 72.1851 118.135 72.1851ZM118.135 65.4751C119.528 65.4751 120.83 65.1451 122.04 64.4851C123.287 63.7885 124.277 62.7618 125.01 61.4051C125.743 60.0485 126.11 58.3985 126.11 56.4551C126.11 53.5585 125.34 51.3401 123.8 49.8001C122.297 48.2234 120.445 47.4351 118.245 47.4351C116.045 47.4351 114.193 48.2234 112.69 49.8001C111.223 51.3401 110.49 53.5585 110.49 56.4551C110.49 59.3518 111.205 61.5884 112.635 63.1651C114.102 64.7051 115.935 65.4751 118.135 65.4751ZM149.578 45.9501C150.568 44.3368 151.852 43.0718 153.428 42.1551C155.042 41.2384 156.875 40.7801 158.929 40.7801V48.8651H156.893C154.473 48.8651 152.64 49.4334 151.393 50.5701C150.183 51.7068 149.578 53.6868 149.578 56.5101V71.6901H141.878V41.2201H149.578V45.9501ZM164.335 56.3451C164.335 53.2651 164.94 50.5334 166.15 48.1501C167.397 45.7668 169.065 43.9334 171.155 42.6501C173.282 41.3668 175.647 40.7251 178.25 40.7251C180.523 40.7251 182.503 41.1834 184.19 42.1001C185.913 43.0168 187.288 44.1718 188.315 45.5651V41.2201H196.07V71.6901H188.315V67.2351C187.325 68.6651 185.95 69.8568 184.19 70.8101C182.467 71.7268 180.468 72.1851 178.195 72.1851C175.628 72.1851 173.282 71.5251 171.155 70.2051C169.065 68.8851 167.397 67.0335 166.15 64.6501C164.94 62.2301 164.335 59.4618 164.335 56.3451ZM188.315 56.4551C188.315 54.5851 187.948 52.9901 187.215 51.6701C186.482 50.3134 185.492 49.2868 184.245 48.5901C182.998 47.8568 181.66 47.4901 180.23 47.4901C178.8 47.4901 177.48 47.8384 176.27 48.5351C175.06 49.2318 174.07 50.2584 173.3 51.6151C172.567 52.9351 172.2 54.5118 172.2 56.3451C172.2 58.1784 172.567 59.7918 173.3 61.1851C174.07 62.5418 175.06 63.5868 176.27 64.3201C177.517 65.0535 178.837 65.4201 180.23 65.4201C181.66 65.4201 182.998 65.0718 184.245 64.3751C185.492 63.6418 186.482 62.6151 187.215 61.2951C187.948 59.9384 188.315 58.3251 188.315 56.4551Z" fill="#011744"/>
<path d="M13.4915 26.844L13.4812 26.8657C13.4812 26.8657 21.068 29.126 24.3169 38.4103C27.5681 47.6981 23.766 53.9373 23.2643 54.9771C23.2626 54.9857 23.2733 55.0003 23.2696 55.0067C21.9348 57.6254 21.6179 60.7544 22.6636 63.7447C24.6992 69.5649 31.0671 72.6279 36.8841 70.5905C42.6975 68.5594 45.7684 62.1907 43.7327 56.3705C42.6843 53.3796 40.4856 51.1365 37.8108 49.9181C37.8028 49.9135 37.8034 49.8958 37.7951 49.89C36.7546 49.3911 29.8903 46.8849 26.6407 37.5981C23.3905 28.3141 27.9117 21.8165 27.9117 21.8165L27.89 21.8062C29.2563 19.1695 29.6038 16.0092 28.5462 12.9845C26.5093 7.16461 20.1378 4.09846 14.323 6.134C8.50782 8.16828 5.44064 14.536 7.47663 20.3574C8.53431 23.3822 10.773 25.6388 13.4915 26.844Z" fill="url(#paint0_linear_2_11)"/>
<path d="M44.1932 58.444L44.2173 58.4412C44.2173 58.4412 41.805 50.8975 47.7979 42.9423C53.7789 34.9891 61.2129 34.5763 62.373 34.4024C62.3839 34.402 62.3862 34.381 62.3959 34.381C65.3626 33.9937 68.1863 32.4861 70.1147 29.9247C73.8701 24.9349 72.8313 17.9376 67.8015 14.2975C62.7802 10.6578 55.658 11.7441 51.9055 16.7291C49.9767 19.2946 49.3373 22.3816 49.8298 25.2784C49.8345 25.2851 49.8178 25.2993 49.819 25.3085C49.9917 26.4502 51.7769 33.5368 45.789 41.4852C39.8043 49.4448 31.7475 49.4061 31.7475 49.4061L31.751 49.4281C28.7474 49.7973 25.8805 51.3077 23.9281 53.9016C20.177 58.8821 21.2158 65.8794 26.2436 69.5173C31.2683 73.1643 38.392 72.0734 42.1411 67.0908C44.0891 64.5009 44.7216 61.3698 44.1932 58.444Z" fill="url(#paint1_linear_2_11)"/>
</g>
<defs>
<linearGradient id="paint0_linear_2_11" x1="16.6826" y1="5.46377" x2="34.5258" y2="71.2605" gradientUnits="userSpaceOnUse">
<stop stop-color="#993D13"/>
<stop offset="1" stop-color="#FF661F"/>
</linearGradient>
<linearGradient id="paint1_linear_2_11" x1="40.1541" y1="17.6233" x2="53.8929" y2="66.1962" gradientUnits="userSpaceOnUse">
<stop stop-color="#FF661F"/>
<stop offset="1" stop-color="#993D13"/>
</linearGradient>
<clipPath id="clip0_2_11">
<rect width="204" height="76" fill="white"/>
</clipPath>
</defs>
</svg>
